<svg preserveAspectRatio="none" overflow="visible" style="display: block;" width="129" height="24" viewBox="0 0 129 24" fill="none" xmlns="http://www.w3.org/2000/svg">
<g id="e">
<path id="g" d="M13.4321 7.16137V4.99342C13.6409 4.97852 13.852 4.96727 14.067 4.96043C19.9523 4.7741 23.8134 10.0552 23.8134 10.0552C23.8134 10.0552 19.6432 15.8906 15.1719 15.8906C14.5279 15.8906 13.9516 15.786 13.4321 15.6103V9.03641C15.7232 9.31524 16.1838 10.3349 17.5617 12.648L20.6252 10.0457C20.6252 10.0457 18.3889 7.09082 14.6192 7.09082C14.209 7.09082 13.8169 7.11997 13.4321 7.16137ZM13.4321 0V3.23822C13.6433 3.22134 13.8548 3.2079 14.067 3.20011C22.2514 2.92234 27.5834 9.96237 27.5834 9.96237C27.5834 9.96237 21.4588 17.4654 15.0785 17.4654C14.4938 17.4654 13.9464 17.411 13.4321 17.3193V19.3209C13.872 19.3773 14.3276 19.4105 14.8031 19.4105C20.7409 19.4105 25.0349 16.3557 29.1929 12.7399C29.8818 13.2961 32.7043 14.6489 33.2847 15.2418C29.3309 18.5761 20.1177 21.2635 14.8945 21.2635C14.3911 21.2635 13.907 21.2329 13.4321 21.1869V24H36V0H13.4321ZM13.4321 15.6103V17.3193C7.94028 16.3329 6.41609 10.5816 6.41609 10.5816C6.41609 10.5816 9.05277 7.6383 13.4321 7.16137V9.03641C13.4287 9.03641 13.4265 9.03554 13.4235 9.03554C11.1256 8.75747 9.32994 10.9208 9.32994 10.9208C9.32994 10.9208 10.3359 14.5622 13.4321 15.6103ZM3.67813 10.3323C3.67813 10.3323 6.93294 5.4937 13.4321 4.99342V3.23822C6.23366 3.82021 0 9.96237 0 9.96237C0 9.96237 3.53037 20.2455 13.4321 21.1869V19.3209C6.16604 18.3999 3.67813 10.3323 3.67813 10.3323Z" fill="#76B900"/>
<path id="f" d="M79.3483 4.02171L79.3499 20H83.8432V4.02199L79.3483 4.02171ZM44 4V20H48.5334V7.85099L52.0454 7.8522C53.2088 7.8522 54.0373 8.14292 54.5979 8.74364C55.3087 9.50427 55.5988 10.7304 55.5988 12.9743V20L59.9905 19.9992L59.9913 11.1601C59.9913 4.85083 55.9866 4 52.0689 4H44ZM86.5834 4.02225V20H93.8716C97.7547 20 99.0221 19.3514 100.393 17.8973C101.362 16.8765 101.988 14.6357 101.988 12.1868C101.988 9.94095 101.458 7.9373 100.533 6.68961C98.8686 4.45839 96.4702 4.02225 92.8898 4.02225H86.5834ZM91.0407 7.50131H92.9727C95.7756 7.50131 97.5882 8.76535 97.5882 12.0451C97.5882 15.3257 95.7756 16.5897 92.9727 16.5897H91.0407V7.50131ZM72.8696 4.02225L69.1195 16.6855L65.526 4.02305L60.6754 4.02225L65.8074 20H72.2837L77.4559 4.02225H72.8696ZM104.079 20H108.573V4.02305L104.078 4.02225L104.079 20ZM116.675 4.02801L110.401 19.9945H114.831L115.824 17.1725H123.25L124.189 19.9945H129L122.678 4.02668L116.675 4.02801ZM119.592 6.94092L122.314 14.4209H116.784L119.592 6.94092Z" fill="white"/>
</g>
</svg>
